<svg width="140" height="165" viewBox="0 0 140 165" fill="none" xmlns="http://www.w3.org/2000/svg">
<rect y="14" width="140" height="140" rx="56" fill="#DD8B2A"/>
<path d="M112.967 110.505C113.612 111.957 113.935 113.248 113.935 114.377C113.935 116.636 113.007 118.572 111.152 120.185C109.377 121.718 107.32 122.484 104.981 122.484C103.448 122.484 101.996 122.081 100.625 121.274C99.2537 120.387 98.205 119.096 97.479 117.402L91.066 103.124H50.047L43.634 117.402C42.908 119.096 41.8593 120.387 40.488 121.274C39.1973 122.081 37.7453 122.484 36.132 122.484C33.7927 122.484 31.6953 121.718 29.84 120.185C27.9847 118.572 27.057 116.636 27.057 114.377C27.057 113.248 27.3797 111.957 28.025 110.505L60.695 41.898C61.5823 39.962 62.9133 38.51 64.688 37.542C66.4627 36.4933 68.3583 35.969 70.375 35.969C72.4723 35.969 74.4083 36.4933 76.183 37.542C77.9577 38.5907 79.329 40.0427 80.297 41.898L112.967 110.505ZM56.46 88.846H84.653L70.617 57.386L56.46 88.846Z" fill="white"/>
</svg>
